<svg id="visual" viewBox="0 0 900 600" width="900" height="600" xmlns="http://www.w3.org/2000/svg" xmlns:xlink="http://www.w3.org/1999/xlink" version="1.1"><g stroke-width="1" stroke-linejoin="bevel"><path d="M494 295L479 223L398 272Z" fill="#081a28" stroke="#081a28"></path><path d="M479 223L380 174L398 272Z" fill="#1d4e6b" stroke="#1d4e6b"></path><path d="M398 272L517 373L494 295Z" fill="#15384f" stroke="#15384f"></path><path d="M494 295L587 170L479 223Z" fill="#112e42" stroke="#112e42"></path><path d="M479 223L438 134L380 174Z" fill="#112e42" stroke="#112e42"></path><path d="M308 215L305 306L398 272Z" fill="#00101c" stroke="#00101c"></path><path d="M398 272L385 438L517 373Z" fill="#15384f" stroke="#15384f"></path><path d="M293 112L308 215L380 174Z" fill="#15384f" stroke="#15384f"></path><path d="M380 174L308 215L398 272Z" fill="#297ea6" stroke="#297ea6"></path><path d="M517 373L563 379L494 295Z" fill="#112e42" stroke="#112e42"></path><path d="M479 223L508 99L438 134Z" fill="#297ea6" stroke="#297ea6"></path><path d="M634 297L587 170L494 295Z" fill="#246688" stroke="#246688"></path><path d="M587 170L508 99L479 223Z" fill="#00101c" stroke="#00101c"></path><path d="M305 306L385 438L398 272Z" fill="#277297" stroke="#277297"></path><path d="M517 373L519 528L563 379Z" fill="#246688" stroke="#246688"></path><path d="M563 379L634 297L494 295Z" fill="#15384f" stroke="#15384f"></path><path d="M205 284L286 395L305 306Z" fill="#15384f" stroke="#15384f"></path><path d="M305 306L286 395L385 438Z" fill="#0c2435" stroke="#0c2435"></path><path d="M286 395L384 466L385 438Z" fill="#205a7a" stroke="#205a7a"></path><path d="M385 438L519 528L517 373Z" fill="#112e42" stroke="#112e42"></path><path d="M364 0L293 112L438 134Z" fill="#205a7a" stroke="#205a7a"></path><path d="M438 134L293 112L380 174Z" fill="#205a7a" stroke="#205a7a"></path><path d="M308 215L205 284L305 306Z" fill="#112e42" stroke="#112e42"></path><path d="M634 297L668 233L587 170Z" fill="#297ea6" stroke="#297ea6"></path><path d="M587 170L562 63L508 99Z" fill="#205a7a" stroke="#205a7a"></path><path d="M681 74L562 63L587 170Z" fill="#112e42" stroke="#112e42"></path><path d="M508 99L364 0L438 134Z" fill="#1d4e6b" stroke="#1d4e6b"></path><path d="M293 112L226 173L308 215Z" fill="#19435d" stroke="#19435d"></path><path d="M226 173L205 284L308 215Z" fill="#246688" stroke="#246688"></path><path d="M634 297L697 306L668 233Z" fill="#1d4e6b" stroke="#1d4e6b"></path><path d="M675 436L697 306L634 297Z" fill="#277297" stroke="#277297"></path><path d="M384 466L519 528L385 438Z" fill="#0c2435" stroke="#0c2435"></path><path d="M563 379L675 436L634 297Z" fill="#0c2435" stroke="#0c2435"></path><path d="M632 0L528 0L562 63Z" fill="#0c2435" stroke="#0c2435"></path><path d="M562 63L528 0L508 99Z" fill="#081a28" stroke="#081a28"></path><path d="M528 0L364 0L508 99Z" fill="#205a7a" stroke="#205a7a"></path><path d="M293 112L194 113L226 173Z" fill="#15384f" stroke="#15384f"></path><path d="M662 476L675 436L563 379Z" fill="#277297" stroke="#277297"></path><path d="M127 331L179 379L205 284Z" fill="#205a7a" stroke="#205a7a"></path><path d="M205 284L179 379L286 395Z" fill="#0c2435" stroke="#0c2435"></path><path d="M286 395L265 522L384 466Z" fill="#00101c" stroke="#00101c"></path><path d="M384 466L413 600L519 528Z" fill="#081a28" stroke="#081a28"></path><path d="M626 526L662 476L563 379Z" fill="#19435d" stroke="#19435d"></path><path d="M233 0L194 113L293 112Z" fill="#246688" stroke="#246688"></path><path d="M99 228L127 331L205 284Z" fill="#15384f" stroke="#15384f"></path><path d="M364 0L314 0L293 112Z" fill="#19435d" stroke="#19435d"></path><path d="M778 182L681 74L668 233Z" fill="#246688" stroke="#246688"></path><path d="M668 233L681 74L587 170Z" fill="#205a7a" stroke="#205a7a"></path><path d="M519 528L626 526L563 379Z" fill="#297ea6" stroke="#297ea6"></path><path d="M177 463L265 522L286 395Z" fill="#00101c" stroke="#00101c"></path><path d="M681 74L632 0L562 63Z" fill="#297ea6" stroke="#297ea6"></path><path d="M99 228L205 284L226 173Z" fill="#00101c" stroke="#00101c"></path><path d="M179 379L177 463L286 395Z" fill="#15384f" stroke="#15384f"></path><path d="M265 522L413 600L384 466Z" fill="#112e42" stroke="#112e42"></path><path d="M519 528L582 600L626 526Z" fill="#19435d" stroke="#19435d"></path><path d="M114 382L177 463L179 379Z" fill="#205a7a" stroke="#205a7a"></path><path d="M806 267L668 233L697 306Z" fill="#15384f" stroke="#15384f"></path><path d="M806 267L778 182L668 233Z" fill="#112e42" stroke="#112e42"></path><path d="M681 74L662 0L632 0Z" fill="#19435d" stroke="#19435d"></path><path d="M806 267L697 306L799 417Z" fill="#205a7a" stroke="#205a7a"></path><path d="M781 0L662 0L681 74Z" fill="#0c2435" stroke="#0c2435"></path><path d="M413 600L526 600L519 528Z" fill="#112e42" stroke="#112e42"></path><path d="M314 0L233 0L293 112Z" fill="#19435d" stroke="#19435d"></path><path d="M132 93L99 228L194 113Z" fill="#0c2435" stroke="#0c2435"></path><path d="M194 113L99 228L226 173Z" fill="#1d4e6b" stroke="#1d4e6b"></path><path d="M0 293L114 382L127 331Z" fill="#112e42" stroke="#112e42"></path><path d="M127 331L114 382L179 379Z" fill="#205a7a" stroke="#205a7a"></path><path d="M799 417L697 306L675 436Z" fill="#297ea6" stroke="#297ea6"></path><path d="M526 600L582 600L519 528Z" fill="#15384f" stroke="#15384f"></path><path d="M824 466L675 436L662 476Z" fill="#297ea6" stroke="#297ea6"></path><path d="M824 466L799 417L675 436Z" fill="#277297" stroke="#277297"></path><path d="M233 0L132 93L194 113Z" fill="#15384f" stroke="#15384f"></path><path d="M227 600L279 600L265 522Z" fill="#19435d" stroke="#19435d"></path><path d="M265 522L279 600L413 600Z" fill="#19435d" stroke="#19435d"></path><path d="M227 600L265 522L177 463Z" fill="#205a7a" stroke="#205a7a"></path><path d="M824 466L662 476L716 600Z" fill="#1d4e6b" stroke="#1d4e6b"></path><path d="M778 182L787 75L681 74Z" fill="#081a28" stroke="#081a28"></path><path d="M900 116L787 75L778 182Z" fill="#15384f" stroke="#15384f"></path><path d="M71 600L227 600L177 463Z" fill="#19435d" stroke="#19435d"></path><path d="M0 434L85 466L114 382Z" fill="#1d4e6b" stroke="#1d4e6b"></path><path d="M114 382L85 466L177 463Z" fill="#1d4e6b" stroke="#1d4e6b"></path><path d="M233 0L125 0L132 93Z" fill="#15384f" stroke="#15384f"></path><path d="M0 207L0 293L99 228Z" fill="#246688" stroke="#246688"></path><path d="M716 600L662 476L626 526Z" fill="#15384f" stroke="#15384f"></path><path d="M799 417L900 323L806 267Z" fill="#297ea6" stroke="#297ea6"></path><path d="M900 0L781 0L787 75Z" fill="#1d4e6b" stroke="#1d4e6b"></path><path d="M787 75L781 0L681 74Z" fill="#297ea6" stroke="#297ea6"></path><path d="M582 600L716 600L626 526Z" fill="#205a7a" stroke="#205a7a"></path><path d="M99 228L0 293L127 331Z" fill="#297ea6" stroke="#297ea6"></path><path d="M0 207L99 228L0 100Z" fill="#15384f" stroke="#15384f"></path><path d="M900 379L900 323L799 417Z" fill="#1d4e6b" stroke="#1d4e6b"></path><path d="M806 267L900 179L778 182Z" fill="#00101c" stroke="#00101c"></path><path d="M0 100L99 228L132 93Z" fill="#1d4e6b" stroke="#1d4e6b"></path><path d="M900 323L900 179L806 267Z" fill="#00101c" stroke="#00101c"></path><path d="M824 466L900 379L799 417Z" fill="#15384f" stroke="#15384f"></path><path d="M900 460L900 379L824 466Z" fill="#205a7a" stroke="#205a7a"></path><path d="M900 179L900 116L778 182Z" fill="#297ea6" stroke="#297ea6"></path><path d="M716 600L790 600L824 466Z" fill="#205a7a" stroke="#205a7a"></path><path d="M125 0L0 100L132 93Z" fill="#19435d" stroke="#19435d"></path><path d="M0 293L0 434L114 382Z" fill="#0c2435" stroke="#0c2435"></path><path d="M85 466L71 600L177 463Z" fill="#112e42" stroke="#112e42"></path><path d="M900 600L900 460L824 466Z" fill="#19435d" stroke="#19435d"></path><path d="M0 531L71 600L85 466Z" fill="#112e42" stroke="#112e42"></path><path d="M0 434L0 531L85 466Z" fill="#19435d" stroke="#19435d"></path><path d="M900 116L900 0L787 75Z" fill="#277297" stroke="#277297"></path><path d="M125 0L0 0L0 100Z" fill="#15384f" stroke="#15384f"></path><path d="M790 600L900 600L824 466Z" fill="#15384f" stroke="#15384f"></path><path d="M0 531L0 600L71 600Z" fill="#00101c" stroke="#00101c"></path></g></svg>