<svg id="visual" viewBox="0 0 900 600" width="900" height="600" xmlns="http://www.w3.org/2000/svg" xmlns:xlink="http://www.w3.org/1999/xlink" version="1.1"><g stroke-width="1" stroke-linejoin="bevel"><path d="M460 330L477 368.9L498 326.9Z" fill="#060607" stroke="#060607"></path><path d="M477 368.9L512 361.7L498 326.9Z" fill="#000000" stroke="#000000"></path><path d="M489 378.7L512 361.7L477 368.9Z" fill="#010102" stroke="#010102"></path><path d="M436 265.1L421 320L460 330Z" fill="#030304" stroke="#030304"></path><path d="M460 330L421 320L477 368.9Z" fill="#020203" stroke="#020203"></path><path d="M512 361.7L546 329L498 326.9Z" fill="#080809" stroke="#080809"></path><path d="M498 326.9L476 255.1L460 330Z" fill="#060607" stroke="#060607"></path><path d="M577 334.9L550 325.9L546 329Z" fill="#050506" stroke="#050506"></path><path d="M546 329L527 260.1L498 326.9Z" fill="#030304" stroke="#030304"></path><path d="M421 320L456 412.7L477 368.9Z" fill="#060607" stroke="#060607"></path><path d="M477 368.9L456 412.7L489 378.7Z" fill="#060607" stroke="#060607"></path><path d="M547 432.6L564 394.6L512 361.7Z" fill="#080809" stroke="#080809"></path><path d="M456 412.7L484 424.6L489 378.7Z" fill="#080809" stroke="#080809"></path><path d="M564 394.6L577 334.9L546 329Z" fill="#000000" stroke="#000000"></path><path d="M527 260.1L476 255.1L498 326.9Z" fill="#020203" stroke="#020203"></path><path d="M476 255.1L436 265.1L460 330Z" fill="#050506" stroke="#050506"></path><path d="M476 454.4L487 438.6L484 424.6Z" fill="#020203" stroke="#020203"></path><path d="M547 432.6L512 361.7L489 378.7Z" fill="#040405" stroke="#040405"></path><path d="M550 325.9L527 260.1L546 329Z" fill="#040405" stroke="#040405"></path><path d="M564 394.6L546 329L512 361.7Z" fill="#020203" stroke="#020203"></path><path d="M550 325.9L569 294L527 260.1Z" fill="#020203" stroke="#020203"></path><path d="M469 209.4L458 249.3L476 255.1Z" fill="#010102" stroke="#010102"></path><path d="M476 255.1L458 249.3L436 265.1Z" fill="#000000" stroke="#000000"></path><path d="M547 432.6L489 378.7L484 424.6Z" fill="#070708" stroke="#070708"></path><path d="M436 265.1L395 289.1L421 320Z" fill="#030304" stroke="#030304"></path><path d="M421 320L377 388.7L456 412.7Z" fill="#020203" stroke="#020203"></path><path d="M369 269L395 289.1L436 265.1Z" fill="#010102" stroke="#010102"></path><path d="M577 334.9L569 294L550 325.9Z" fill="#080809" stroke="#080809"></path><path d="M395 289.1L383 302.9L421 320Z" fill="#060607" stroke="#060607"></path><path d="M456 412.7L476 454.4L484 424.6Z" fill="#040405" stroke="#040405"></path><path d="M487 438.6L547 432.6L484 424.6Z" fill="#000000" stroke="#000000"></path><path d="M458 481.4L476 454.4L456 412.7Z" fill="#040405" stroke="#040405"></path><path d="M536 489.3L547 432.6L487 438.6Z" fill="#040405" stroke="#040405"></path><path d="M383 302.9L377 388.7L421 320Z" fill="#080809" stroke="#080809"></path><path d="M377 388.7L383 406.7L456 412.7Z" fill="#080809" stroke="#080809"></path><path d="M547 432.6L591 400.7L564 394.6Z" fill="#070708" stroke="#070708"></path><path d="M564 394.6L611 358.9L577 334.9Z" fill="#030304" stroke="#030304"></path><path d="M620 286.1L607 272.1L569 294Z" fill="#060607" stroke="#060607"></path><path d="M591 400.7L611 358.9L564 394.6Z" fill="#070708" stroke="#070708"></path><path d="M607 272.1L534 224.1L527 260.1Z" fill="#030304" stroke="#030304"></path><path d="M527 260.1L534 224.1L476 255.1Z" fill="#010102" stroke="#010102"></path><path d="M607 272.1L527 260.1L569 294Z" fill="#020203" stroke="#020203"></path><path d="M395 289.1L369 269L383 302.9Z" fill="#030304" stroke="#030304"></path><path d="M383 302.9L337 366.7L377 388.7Z" fill="#080809" stroke="#080809"></path><path d="M427 212.3L369 269L436 265.1Z" fill="#010102" stroke="#010102"></path><path d="M427 212.3L436 265.1L458 249.3Z" fill="#060607" stroke="#060607"></path><path d="M534 224.1L469 209.4L476 255.1Z" fill="#030304" stroke="#030304"></path><path d="M458 481.4L473 482.3L476 454.4Z" fill="#080809" stroke="#080809"></path><path d="M476 454.4L536 489.3L487 438.6Z" fill="#030304" stroke="#030304"></path><path d="M396 466.4L458 481.4L456 412.7Z" fill="#030304" stroke="#030304"></path><path d="M469 209.4L427 212.3L458 249.3Z" fill="#020203" stroke="#020203"></path><path d="M335 326L337 366.7L383 302.9Z" fill="#020203" stroke="#020203"></path><path d="M377 388.7L361 436.4L383 406.7Z" fill="#060607" stroke="#060607"></path><path d="M383 406.7L392 461.6L456 412.7Z" fill="#010102" stroke="#010102"></path><path d="M620 286.1L569 294L577 334.9Z" fill="#010102" stroke="#010102"></path><path d="M328 319.9L335 326L383 302.9Z" fill="#020203" stroke="#020203"></path><path d="M361 436.4L392 461.6L383 406.7Z" fill="#080809" stroke="#080809"></path><path d="M392 461.6L396 466.4L456 412.7Z" fill="#020203" stroke="#020203"></path><path d="M335 326L331 357.9L337 366.7Z" fill="#020203" stroke="#020203"></path><path d="M337 366.7L361 436.4L377 388.7Z" fill="#000000" stroke="#000000"></path><path d="M330 442.6L361 436.4L337 366.7Z" fill="#060607" stroke="#060607"></path><path d="M392 461.6L329 474.3L396 466.4Z" fill="#070708" stroke="#070708"></path><path d="M611 358.9L620 286.1L577 334.9Z" fill="#050506" stroke="#050506"></path><path d="M369 269L328 319.9L383 302.9Z" fill="#070708" stroke="#070708"></path><path d="M335 326L328 319.9L331 357.9Z" fill="#020203" stroke="#020203"></path><path d="M507 501.4L476 454.4L473 482.3Z" fill="#010102" stroke="#010102"></path><path d="M507 501.4L536 489.3L476 454.4Z" fill="#060607" stroke="#060607"></path><path d="M547 432.6L601 452.4L591 400.7Z" fill="#040405" stroke="#040405"></path><path d="M594 194.4L546 201.4L534 224.1Z" fill="#030304" stroke="#030304"></path><path d="M534 224.1L546 201.4L469 209.4Z" fill="#080809" stroke="#080809"></path><path d="M391 179.3L406 202.4L406 154.6Z" fill="#050506" stroke="#050506"></path><path d="M548 198.3L546 201.4L594 194.4Z" fill="#060607" stroke="#060607"></path><path d="M490 533.1L507 501.4L473 482.3Z" fill="#080809" stroke="#080809"></path><path d="M490 533.1L473 482.3L458 481.4Z" fill="#020203" stroke="#020203"></path><path d="M406 202.4L427 212.3L406 154.6Z" fill="#060607" stroke="#060607"></path><path d="M427 212.3L406 202.4L369 269Z" fill="#020203" stroke="#020203"></path><path d="M369 269L338 249.1L328 319.9Z" fill="#020203" stroke="#020203"></path><path d="M620 239.3L534 224.1L607 272.1Z" fill="#020203" stroke="#020203"></path><path d="M546 201.4L529 146.6L469 209.4Z" fill="#010102" stroke="#010102"></path><path d="M536 489.3L601 452.4L547 432.6Z" fill="#030304" stroke="#030304"></path><path d="M661 402.7L645 359.7L611 358.9Z" fill="#060607" stroke="#060607"></path><path d="M611 358.9L661 339L620 286.1Z" fill="#070708" stroke="#070708"></path><path d="M661 402.7L611 358.9L591 400.7Z" fill="#040405" stroke="#040405"></path><path d="M351 199.4L338 249.1L369 269Z" fill="#020203" stroke="#020203"></path><path d="M646 473.4L620 444.4L601 452.4Z" fill="#050506" stroke="#050506"></path><path d="M601 452.4L620 444.4L591 400.7Z" fill="#040405" stroke="#040405"></path><path d="M665 273L620 239.3L620 286.1Z" fill="#080809" stroke="#080809"></path><path d="M620 286.1L620 239.3L607 272.1Z" fill="#060607" stroke="#060607"></path><path d="M281 427.6L330 442.6L337 366.7Z" fill="#060607" stroke="#060607"></path><path d="M361 436.4L329 474.3L392 461.6Z" fill="#000000" stroke="#000000"></path><path d="M281 427.6L337 366.7L331 357.9Z" fill="#070708" stroke="#070708"></path><path d="M690 341.9L661 339L645 359.7Z" fill="#010102" stroke="#010102"></path><path d="M645 359.7L661 339L611 358.9Z" fill="#000000" stroke="#000000"></path><path d="M677 248.3L616 219.3L620 239.3Z" fill="#020203" stroke="#020203"></path><path d="M620 239.3L616 219.3L534 224.1Z" fill="#050506" stroke="#050506"></path><path d="M459 147.4L427 212.3L469 209.4Z" fill="#020203" stroke="#020203"></path><path d="M406 202.4L351 199.4L369 269Z" fill="#070708" stroke="#070708"></path><path d="M616 219.3L594 194.4L534 224.1Z" fill="#020203" stroke="#020203"></path><path d="M529 146.6L459 147.4L469 209.4Z" fill="#070708" stroke="#070708"></path><path d="M477 545.3L458 481.4L413 542.1Z" fill="#030304" stroke="#030304"></path><path d="M477 545.3L490 533.1L458 481.4Z" fill="#030304" stroke="#030304"></path><path d="M507 501.4L563 558.1L536 489.3Z" fill="#040405" stroke="#040405"></path><path d="M536 489.3L601 493.3L601 452.4Z" fill="#060607" stroke="#060607"></path><path d="M620 444.4L661 402.7L591 400.7Z" fill="#060607" stroke="#060607"></path><path d="M563 558.1L601 493.3L536 489.3Z" fill="#020203" stroke="#020203"></path><path d="M620 444.4L642 447.6L661 402.7Z" fill="#050506" stroke="#050506"></path><path d="M646 473.4L642 447.6L620 444.4Z" fill="#060607" stroke="#060607"></path><path d="M391 179.3L351 199.4L406 202.4Z" fill="#050506" stroke="#050506"></path><path d="M690 341.9L665 273L661 339Z" fill="#000000" stroke="#000000"></path><path d="M661 339L665 273L620 286.1Z" fill="#050506" stroke="#050506"></path><path d="M597 117.7L586 124.7L604 117.6Z" fill="#060607" stroke="#060607"></path><path d="M529 146.6L546 201.4L548 198.3Z" fill="#060607" stroke="#060607"></path><path d="M299 264L288 296.1L328 319.9Z" fill="#050506" stroke="#050506"></path><path d="M328 319.9L261 322.9L331 357.9Z" fill="#010102" stroke="#010102"></path><path d="M299 264L328 319.9L338 249.1Z" fill="#080809" stroke="#080809"></path><path d="M329 202.3L299 264L338 249.1Z" fill="#020203" stroke="#020203"></path><path d="M305 476.4L329 474.3L330 442.6Z" fill="#060607" stroke="#060607"></path><path d="M330 442.6L329 474.3L361 436.4Z" fill="#070708" stroke="#070708"></path><path d="M413 542.1L458 481.4L396 466.4Z" fill="#010102" stroke="#010102"></path><path d="M490 533.1L563 558.1L507 501.4Z" fill="#000000" stroke="#000000"></path><path d="M586 124.7L529 146.6L548 198.3Z" fill="#080809" stroke="#080809"></path><path d="M459 147.4L406 154.6L427 212.3Z" fill="#080809" stroke="#080809"></path><path d="M391 179.3L344 192.3L351 199.4Z" fill="#030304" stroke="#030304"></path><path d="M335 167.6L344 192.3L366 143.4Z" fill="#060607" stroke="#060607"></path><path d="M351 199.4L329 202.3L338 249.1Z" fill="#020203" stroke="#020203"></path><path d="M344 192.3L329 202.3L351 199.4Z" fill="#010102" stroke="#010102"></path><path d="M383 541.3L413 542.1L396 466.4Z" fill="#010102" stroke="#010102"></path><path d="M735 385.7L690 341.9L661 402.7Z" fill="#030304" stroke="#030304"></path><path d="M661 402.7L690 341.9L645 359.7Z" fill="#050506" stroke="#050506"></path><path d="M601 493.3L646 473.4L601 452.4Z" fill="#070708" stroke="#070708"></path><path d="M642 447.6L698 424.6L661 402.7Z" fill="#050506" stroke="#050506"></path><path d="M259 219.3L283 265L299 264Z" fill="#060607" stroke="#060607"></path><path d="M299 264L283 265L288 296.1Z" fill="#040405" stroke="#040405"></path><path d="M261 322.9L328 319.9L288 296.1Z" fill="#060607" stroke="#060607"></path><path d="M254 340.9L281 427.6L331 357.9Z" fill="#070708" stroke="#070708"></path><path d="M712 249.1L677 248.3L665 273Z" fill="#040405" stroke="#040405"></path><path d="M665 273L677 248.3L620 239.3Z" fill="#070708" stroke="#070708"></path><path d="M594 194.4L586 124.7L548 198.3Z" fill="#070708" stroke="#070708"></path><path d="M281 427.6L305 476.4L330 442.6Z" fill="#020203" stroke="#020203"></path><path d="M372 536.1L383 541.3L396 466.4Z" fill="#080809" stroke="#080809"></path><path d="M368 533.3L396 466.4L329 474.3Z" fill="#030304" stroke="#030304"></path><path d="M541 585.1L490 533.1L500 600Z" fill="#040405" stroke="#040405"></path><path d="M308 493.3L368 533.3L329 474.3Z" fill="#020203" stroke="#020203"></path><path d="M368 533.3L372 536.1L396 466.4Z" fill="#030304" stroke="#030304"></path><path d="M242 260L261 322.9L288 296.1Z" fill="#080809" stroke="#080809"></path><path d="M206 354.7L254 340.9L203 305.9Z" fill="#030304" stroke="#030304"></path><path d="M261 322.9L254 340.9L331 357.9Z" fill="#020203" stroke="#020203"></path><path d="M305 476.4L308 493.3L329 474.3Z" fill="#020203" stroke="#020203"></path><path d="M368 533.3L330 558.1L372 536.1Z" fill="#060607" stroke="#060607"></path><path d="M256 462.4L308 493.3L305 476.4Z" fill="#040405" stroke="#040405"></path><path d="M344 192.3L335 167.6L329 202.3Z" fill="#040405" stroke="#040405"></path><path d="M259 219.3L242 260L283 265Z" fill="#050506" stroke="#050506"></path><path d="M366 143.4L344 192.3L391 179.3Z" fill="#020203" stroke="#020203"></path><path d="M490 533.1L477 545.3L500 600Z" fill="#070708" stroke="#070708"></path><path d="M541 585.1L563 558.1L490 533.1Z" fill="#020203" stroke="#020203"></path><path d="M601 493.3L614 534.3L646 473.4Z" fill="#030304" stroke="#030304"></path><path d="M406 154.6L366 143.4L391 179.3Z" fill="#060607" stroke="#060607"></path><path d="M415 118.7L366 143.4L406 154.6Z" fill="#020203" stroke="#020203"></path><path d="M415 118.7L406 154.6L459 147.4Z" fill="#060607" stroke="#060607"></path><path d="M720 457.6L698 424.6L646 473.4Z" fill="#020203" stroke="#020203"></path><path d="M646 473.4L698 424.6L642 447.6Z" fill="#020203" stroke="#020203"></path><path d="M563 558.1L614 534.3L601 493.3Z" fill="#070708" stroke="#070708"></path><path d="M452 90.6L415 118.7L459 147.4Z" fill="#060607" stroke="#060607"></path><path d="M586 124.7L594 194.4L604 117.6Z" fill="#010102" stroke="#010102"></path><path d="M529 146.6L511 95.7L459 147.4Z" fill="#080809" stroke="#080809"></path><path d="M462 600L477 545.3L413 542.1Z" fill="#020203" stroke="#020203"></path><path d="M563 558.1L620 578.1L614 534.3Z" fill="#010102" stroke="#010102"></path><path d="M415 118.7L361 124.6L366 143.4Z" fill="#030304" stroke="#030304"></path><path d="M366 143.4L361 124.6L335 167.6Z" fill="#030304" stroke="#030304"></path><path d="M548 102.6L511 95.7L529 146.6Z" fill="#060607" stroke="#060607"></path><path d="M415 118.7L396 88.7L361 124.6Z" fill="#020203" stroke="#020203"></path><path d="M725 273L712 249.1L665 273Z" fill="#010102" stroke="#010102"></path><path d="M708 192.4L665 147.4L616 219.3Z" fill="#060607" stroke="#060607"></path><path d="M725 273L665 273L690 341.9Z" fill="#070708" stroke="#070708"></path><path d="M586 124.7L548 102.6L529 146.6Z" fill="#080809" stroke="#080809"></path><path d="M712 249.1L705 232.1L677 248.3Z" fill="#050506" stroke="#050506"></path><path d="M233 404.7L243 426.6L281 427.6Z" fill="#000000" stroke="#000000"></path><path d="M281 427.6L256 462.4L305 476.4Z" fill="#010102" stroke="#010102"></path><path d="M259 219.3L299 264L329 202.3Z" fill="#070708" stroke="#070708"></path><path d="M283 265L242 260L288 296.1Z" fill="#010102" stroke="#010102"></path><path d="M254 340.9L233 404.7L281 427.6Z" fill="#020203" stroke="#020203"></path><path d="M259 219.3L329 202.3L266 173.4Z" fill="#070708" stroke="#070708"></path><path d="M243 426.6L256 462.4L281 427.6Z" fill="#050506" stroke="#050506"></path><path d="M308 493.3L330 558.1L368 533.3Z" fill="#040405" stroke="#040405"></path><path d="M266 173.4L329 202.3L335 167.6Z" fill="#080809" stroke="#080809"></path><path d="M206 354.7L233 404.7L254 340.9Z" fill="#040405" stroke="#040405"></path><path d="M243 426.6L209 464.4L256 462.4Z" fill="#030304" stroke="#030304"></path><path d="M604 117.6L594 194.4L665 147.4Z" fill="#080809" stroke="#080809"></path><path d="M586 124.7L570 72.7L548 102.6Z" fill="#040405" stroke="#040405"></path><path d="M730 212.3L708 192.4L705 232.1Z" fill="#080809" stroke="#080809"></path><path d="M745 305.9L725 273L690 341.9Z" fill="#050506" stroke="#050506"></path><path d="M470 80.9L452 90.6L459 147.4Z" fill="#020203" stroke="#020203"></path><path d="M425 600L413 542.1L381 600Z" fill="#020203" stroke="#020203"></path><path d="M425 600L462 600L413 542.1Z" fill="#000000" stroke="#000000"></path><path d="M330 558.1L383 541.3L372 536.1Z" fill="#040405" stroke="#040405"></path><path d="M462 600L500 600L477 545.3Z" fill="#010102" stroke="#010102"></path><path d="M750 438.6L735 385.7L698 424.6Z" fill="#000000" stroke="#000000"></path><path d="M698 424.6L735 385.7L661 402.7Z" fill="#060607" stroke="#060607"></path><path d="M665 147.4L594 194.4L616 219.3Z" fill="#050506" stroke="#050506"></path><path d="M597 117.7L570 72.7L586 124.7Z" fill="#060607" stroke="#060607"></path><path d="M279 550.1L330 558.1L308 493.3Z" fill="#080809" stroke="#080809"></path><path d="M381 600L413 542.1L383 541.3Z" fill="#070708" stroke="#070708"></path><path d="M500 600L538 600L541 585.1Z" fill="#030304" stroke="#030304"></path><path d="M541 585.1L553 600L563 558.1Z" fill="#050506" stroke="#050506"></path><path d="M459 64.9L470 80.9L467 62.7Z" fill="#000000" stroke="#000000"></path><path d="M511 95.7L470 80.9L459 147.4Z" fill="#080809" stroke="#080809"></path><path d="M452 90.6L396 88.7L415 118.7Z" fill="#000000" stroke="#000000"></path><path d="M470 80.9L511 95.7L467 62.7Z" fill="#040405" stroke="#040405"></path><path d="M723 464.4L695 551.3L741 486.4Z" fill="#060607" stroke="#060607"></path><path d="M723 464.4L720 457.6L646 473.4Z" fill="#080809" stroke="#080809"></path><path d="M538 600L553 600L541 585.1Z" fill="#070708" stroke="#070708"></path><path d="M259 219.3L242 225.3L242 260Z" fill="#040405" stroke="#040405"></path><path d="M203 305.9L254 340.9L261 322.9Z" fill="#080809" stroke="#080809"></path><path d="M212 195.4L242 225.3L259 219.3Z" fill="#060607" stroke="#060607"></path><path d="M735 385.7L745 305.9L690 341.9Z" fill="#020203" stroke="#020203"></path><path d="M730 212.3L705 232.1L712 249.1Z" fill="#050506" stroke="#050506"></path><path d="M459 64.9L396 88.7L452 90.6Z" fill="#030304" stroke="#030304"></path><path d="M279 109.6L266 173.4L335 167.6Z" fill="#070708" stroke="#070708"></path><path d="M708 192.4L616 219.3L677 248.3Z" fill="#040405" stroke="#040405"></path><path d="M708 192.4L677 248.3L705 232.1Z" fill="#010102" stroke="#010102"></path><path d="M723 464.4L646 473.4L695 551.3Z" fill="#050506" stroke="#050506"></path><path d="M720 457.6L750 438.6L698 424.6Z" fill="#080809" stroke="#080809"></path><path d="M610 600L620 578.1L563 558.1Z" fill="#060607" stroke="#060607"></path><path d="M730 212.3L712 249.1L725 273Z" fill="#060607" stroke="#060607"></path><path d="M279 109.6L335 167.6L288 100.7Z" fill="#030304" stroke="#030304"></path><path d="M665 147.4L615 105.6L604 117.6Z" fill="#040405" stroke="#040405"></path><path d="M604 117.6L615 105.6L597 117.7Z" fill="#060607" stroke="#060607"></path><path d="M330 558.1L381 600L383 541.3Z" fill="#070708" stroke="#070708"></path><path d="M203 305.9L261 322.9L242 260Z" fill="#050506" stroke="#050506"></path><path d="M233 404.7L207 440.6L243 426.6Z" fill="#080809" stroke="#080809"></path><path d="M187 333L203 305.9L125 330Z" fill="#040405" stroke="#040405"></path><path d="M203 238.1L203 305.9L242 260Z" fill="#060607" stroke="#060607"></path><path d="M467 62.7L511 95.7L561 38.9Z" fill="#060607" stroke="#060607"></path><path d="M470 80.9L459 64.9L452 90.6Z" fill="#050506" stroke="#050506"></path><path d="M570 72.7L511 95.7L548 102.6Z" fill="#060607" stroke="#060607"></path><path d="M762 284.1L730 212.3L725 273Z" fill="#030304" stroke="#030304"></path><path d="M697 116.7L662 108.6L665 147.4Z" fill="#060607" stroke="#060607"></path><path d="M742 153.4L729 204.4L758 176.3Z" fill="#050506" stroke="#050506"></path><path d="M730 212.3L729 204.4L708 192.4Z" fill="#080809" stroke="#080809"></path><path d="M741 486.4L750 438.6L723 464.4Z" fill="#000000" stroke="#000000"></path><path d="M723 464.4L750 438.6L720 457.6Z" fill="#060607" stroke="#060607"></path><path d="M801 345.7L762 284.1L745 305.9Z" fill="#020203" stroke="#020203"></path><path d="M615 105.6L570 72.7L597 117.7Z" fill="#040405" stroke="#040405"></path><path d="M553 600L610 600L563 558.1Z" fill="#060607" stroke="#060607"></path><path d="M695 551.3L646 473.4L614 534.3Z" fill="#010102" stroke="#010102"></path><path d="M256 462.4L279 550.1L308 493.3Z" fill="#010102" stroke="#010102"></path><path d="M330 558.1L294 600L381 600Z" fill="#020203" stroke="#020203"></path><path d="M210 535.3L279 550.1L256 462.4Z" fill="#080809" stroke="#080809"></path><path d="M772 359.9L745 305.9L735 385.7Z" fill="#030304" stroke="#030304"></path><path d="M745 305.9L762 284.1L725 273Z" fill="#080809" stroke="#080809"></path><path d="M200 435.6L233 404.7L206 354.7Z" fill="#010102" stroke="#010102"></path><path d="M200 435.6L207 440.6L233 404.7Z" fill="#060607" stroke="#060607"></path><path d="M770 410.7L772 359.9L735 385.7Z" fill="#070708" stroke="#070708"></path><path d="M203 238.1L242 260L242 225.3Z" fill="#070708" stroke="#070708"></path><path d="M203 305.9L187 333L206 354.7Z" fill="#060607" stroke="#060607"></path><path d="M144 389.7L200 435.6L206 354.7Z" fill="#030304" stroke="#030304"></path><path d="M207 440.6L209 464.4L243 426.6Z" fill="#060607" stroke="#060607"></path><path d="M386 58.9L368 70.9L396 88.7Z" fill="#060607" stroke="#060607"></path><path d="M396 88.7L368 70.9L361 124.6Z" fill="#070708" stroke="#070708"></path><path d="M386 58.9L396 88.7L459 64.9Z" fill="#000000" stroke="#000000"></path><path d="M200 435.6L209 464.4L207 440.6Z" fill="#020203" stroke="#020203"></path><path d="M212 195.4L203 238.1L242 225.3Z" fill="#000000" stroke="#000000"></path><path d="M695 551.3L614 534.3L620 578.1Z" fill="#000000" stroke="#000000"></path><path d="M750 438.6L770 410.7L735 385.7Z" fill="#050506" stroke="#050506"></path><path d="M810 404.6L770 410.7L832 455.4Z" fill="#050506" stroke="#050506"></path><path d="M665 147.4L662 108.6L615 105.6Z" fill="#060607" stroke="#060607"></path><path d="M615 105.6L615 64.9L570 72.7Z" fill="#050506" stroke="#050506"></path><path d="M697 116.7L665 147.4L708 192.4Z" fill="#070708" stroke="#070708"></path><path d="M706 576.1L695 551.3L688 600Z" fill="#010102" stroke="#010102"></path><path d="M434 0L386 58.9L459 64.9Z" fill="#070708" stroke="#070708"></path><path d="M801 345.7L778 277L762 284.1Z" fill="#040405" stroke="#040405"></path><path d="M762 284.1L778 277L730 212.3Z" fill="#000000" stroke="#000000"></path><path d="M801 345.7L745 305.9L772 359.9Z" fill="#020203" stroke="#020203"></path><path d="M240 112.6L212 195.4L266 173.4Z" fill="#020203" stroke="#020203"></path><path d="M266 173.4L212 195.4L259 219.3Z" fill="#040405" stroke="#040405"></path><path d="M801 345.7L787 367.9L817 342.9Z" fill="#000000" stroke="#000000"></path><path d="M770 410.7L787 367.9L772 359.9Z" fill="#020203" stroke="#020203"></path><path d="M288 100.7L361 124.6L368 70.9Z" fill="#040405" stroke="#040405"></path><path d="M288 100.7L335 167.6L361 124.6Z" fill="#070708" stroke="#070708"></path><path d="M662 108.6L615 64.9L615 105.6Z" fill="#060607" stroke="#060607"></path><path d="M570 72.7L561 38.9L511 95.7Z" fill="#020203" stroke="#020203"></path><path d="M467 62.7L434 0L459 64.9Z" fill="#020203" stroke="#020203"></path><path d="M273 87.7L288 100.7L322 2.9Z" fill="#020203" stroke="#020203"></path><path d="M210 535.3L268 572.1L279 550.1Z" fill="#060607" stroke="#060607"></path><path d="M279 550.1L294 600L330 558.1Z" fill="#030304" stroke="#030304"></path><path d="M742 153.4L697 116.7L708 192.4Z" fill="#080809" stroke="#080809"></path><path d="M662 108.6L641 36.9L615 64.9Z" fill="#030304" stroke="#030304"></path><path d="M742 153.4L708 192.4L729 204.4Z" fill="#060607" stroke="#060607"></path><path d="M200 435.6L194 474.4L209 464.4Z" fill="#070708" stroke="#070708"></path><path d="M209 464.4L210 535.3L256 462.4Z" fill="#020203" stroke="#020203"></path><path d="M130 417.7L194 474.4L200 435.6Z" fill="#040405" stroke="#040405"></path><path d="M190 220.1L192 216.3L148 177.4Z" fill="#010102" stroke="#010102"></path><path d="M212 195.4L192 216.3L203 238.1Z" fill="#030304" stroke="#030304"></path><path d="M203 238.1L162 243.3L203 305.9Z" fill="#010102" stroke="#010102"></path><path d="M192 216.3L190 220.1L203 238.1Z" fill="#000000" stroke="#000000"></path><path d="M615 64.9L561 38.9L570 72.7Z" fill="#000000" stroke="#000000"></path><path d="M268 572.1L294 600L279 550.1Z" fill="#080809" stroke="#080809"></path><path d="M810 404.6L787 367.9L770 410.7Z" fill="#050506" stroke="#050506"></path><path d="M787 367.9L801 345.7L772 359.9Z" fill="#060607" stroke="#060607"></path><path d="M706 576.1L726 554.1L695 551.3Z" fill="#070708" stroke="#070708"></path><path d="M695 551.3L726 554.1L741 486.4Z" fill="#050506" stroke="#050506"></path><path d="M792 487.3L770 410.7L750 438.6Z" fill="#000000" stroke="#000000"></path><path d="M688 600L695 551.3L620 578.1Z" fill="#050506" stroke="#050506"></path><path d="M729 204.4L730 212.3L775 203.3Z" fill="#010102" stroke="#010102"></path><path d="M758 176.3L729 204.4L775 203.3Z" fill="#060607" stroke="#060607"></path><path d="M775 203.3L730 212.3L778 277Z" fill="#040405" stroke="#040405"></path><path d="M776 82.7L696 99.6L697 116.7Z" fill="#020203" stroke="#020203"></path><path d="M697 116.7L696 99.6L662 108.6Z" fill="#060607" stroke="#060607"></path><path d="M615 64.9L616 0L561 38.9Z" fill="#000000" stroke="#000000"></path><path d="M817 236.1L775 203.3L778 277Z" fill="#070708" stroke="#070708"></path><path d="M610 600L688 600L620 578.1Z" fill="#020203" stroke="#020203"></path><path d="M706 576.1L739 567.1L726 554.1Z" fill="#080809" stroke="#080809"></path><path d="M288 100.7L273 87.7L279 109.6Z" fill="#050506" stroke="#050506"></path><path d="M279 109.6L240 112.6L266 173.4Z" fill="#020203" stroke="#020203"></path><path d="M322 2.9L288 100.7L368 70.9Z" fill="#000000" stroke="#000000"></path><path d="M739 567.1L756 527.3L726 554.1Z" fill="#010102" stroke="#010102"></path><path d="M726 554.1L756 527.3L741 486.4Z" fill="#060607" stroke="#060607"></path><path d="M194 474.4L210 535.3L209 464.4Z" fill="#060607" stroke="#060607"></path><path d="M268 572.1L242 600L294 600Z" fill="#060607" stroke="#060607"></path><path d="M273 87.7L240 112.6L279 109.6Z" fill="#030304" stroke="#030304"></path><path d="M132 240.1L162 243.3L148 177.4Z" fill="#020203" stroke="#020203"></path><path d="M162 243.3L190 220.1L148 177.4Z" fill="#000000" stroke="#000000"></path><path d="M190 220.1L162 243.3L203 238.1Z" fill="#030304" stroke="#030304"></path><path d="M187 333L144 389.7L206 354.7Z" fill="#080809" stroke="#080809"></path><path d="M792 487.3L750 438.6L741 486.4Z" fill="#020203" stroke="#020203"></path><path d="M810 404.6L817 342.9L787 367.9Z" fill="#020203" stroke="#020203"></path><path d="M801 345.7L817 342.9L778 277Z" fill="#020203" stroke="#020203"></path><path d="M125 330L144 389.7L187 333Z" fill="#020203" stroke="#020203"></path><path d="M194 474.4L193 532.1L210 535.3Z" fill="#020203" stroke="#020203"></path><path d="M688 600L705 600L706 576.1Z" fill="#020203" stroke="#020203"></path><path d="M705 600L739 567.1L706 576.1Z" fill="#080809" stroke="#080809"></path><path d="M756 527.3L792 487.3L741 486.4Z" fill="#060607" stroke="#060607"></path><path d="M817 342.9L815 270.1L778 277Z" fill="#020203" stroke="#020203"></path><path d="M807 521.1L792 487.3L756 527.3Z" fill="#010102" stroke="#010102"></path><path d="M159 535.3L193 532.1L194 474.4Z" fill="#050506" stroke="#050506"></path><path d="M229 600L242 600L268 572.1Z" fill="#070708" stroke="#070708"></path><path d="M692 57.7L641 36.9L662 108.6Z" fill="#020203" stroke="#020203"></path><path d="M533 0L434 0L467 62.7Z" fill="#020203" stroke="#020203"></path><path d="M386 58.9L373 0L368 70.9Z" fill="#020203" stroke="#020203"></path><path d="M533 0L467 62.7L561 38.9Z" fill="#010102" stroke="#010102"></path><path d="M786 165.6L778 164.4L775 203.3Z" fill="#060607" stroke="#060607"></path><path d="M775 203.3L778 164.4L758 176.3Z" fill="#030304" stroke="#030304"></path><path d="M758 176.3L778 164.4L742 153.4Z" fill="#070708" stroke="#070708"></path><path d="M776 82.7L692 57.7L696 99.6Z" fill="#020203" stroke="#020203"></path><path d="M696 99.6L692 57.7L662 108.6Z" fill="#020203" stroke="#020203"></path><path d="M542 0L533 0L561 38.9Z" fill="#020203" stroke="#020203"></path><path d="M229 600L268 572.1L203 584.1Z" fill="#030304" stroke="#030304"></path><path d="M616 0L542 0L561 38.9Z" fill="#020203" stroke="#020203"></path><path d="M434 0L412 0L386 58.9Z" fill="#080809" stroke="#080809"></path><path d="M815 270.1L817 236.1L778 277Z" fill="#060607" stroke="#060607"></path><path d="M877 251.3L817 236.1L815 270.1Z" fill="#070708" stroke="#070708"></path><path d="M816 154.4L786 165.6L775 203.3Z" fill="#070708" stroke="#070708"></path><path d="M778 164.4L787 99.7L742 153.4Z" fill="#070708" stroke="#070708"></path><path d="M162 243.3L125 330L203 305.9Z" fill="#050506" stroke="#050506"></path><path d="M816 154.4L787 163.6L786 165.6Z" fill="#080809" stroke="#080809"></path><path d="M786 165.6L787 163.6L778 164.4Z" fill="#080809" stroke="#080809"></path><path d="M711 32.9L692 57.7L760 35.9Z" fill="#020203" stroke="#020203"></path><path d="M125 398.6L130 417.7L144 389.7Z" fill="#020203" stroke="#020203"></path><path d="M144 389.7L130 417.7L200 435.6Z" fill="#070708" stroke="#070708"></path><path d="M203 584.1L268 572.1L210 535.3Z" fill="#010102" stroke="#010102"></path><path d="M203 584.1L210 535.3L193 532.1Z" fill="#080809" stroke="#080809"></path><path d="M125 330L125 398.6L144 389.7Z" fill="#020203" stroke="#020203"></path><path d="M900 399.7L840 323L817 342.9Z" fill="#040405" stroke="#040405"></path><path d="M817 342.9L840 323L815 270.1Z" fill="#080809" stroke="#080809"></path><path d="M877 417.7L817 342.9L810 404.6Z" fill="#060607" stroke="#060607"></path><path d="M412 0L373 0L386 58.9Z" fill="#020203" stroke="#020203"></path><path d="M273 87.7L246 56.9L240 112.6Z" fill="#050506" stroke="#050506"></path><path d="M148 177.4L192 216.3L212 195.4Z" fill="#080809" stroke="#080809"></path><path d="M162 243.3L104 279L125 330Z" fill="#060607" stroke="#060607"></path><path d="M132 240.1L128 246.1L162 243.3Z" fill="#030304" stroke="#030304"></path><path d="M159 535.3L203 584.1L193 532.1Z" fill="#030304" stroke="#030304"></path><path d="M834 476.3L832 455.4L792 487.3Z" fill="#070708" stroke="#070708"></path><path d="M792 487.3L832 455.4L770 410.7Z" fill="#010102" stroke="#010102"></path><path d="M711 32.9L681 33.9L692 57.7Z" fill="#020203" stroke="#020203"></path><path d="M692 57.7L681 33.9L641 36.9Z" fill="#050506" stroke="#050506"></path><path d="M641 36.9L616 0L615 64.9Z" fill="#040405" stroke="#040405"></path><path d="M628 0L616 0L641 36.9Z" fill="#060607" stroke="#060607"></path><path d="M258 18.9L246 56.9L273 87.7Z" fill="#040405" stroke="#040405"></path><path d="M155 156.4L148 177.4L212 195.4Z" fill="#060607" stroke="#060607"></path><path d="M132 240.1L54 191.3L128 246.1Z" fill="#060607" stroke="#060607"></path><path d="M822 540.3L807 521.1L756 527.3Z" fill="#060607" stroke="#060607"></path><path d="M797 600L756 527.3L739 567.1Z" fill="#060607" stroke="#060607"></path><path d="M155 156.4L212 195.4L179 106.6Z" fill="#070708" stroke="#070708"></path><path d="M873 459.4L840 439.6L832 455.4Z" fill="#030304" stroke="#030304"></path><path d="M832 455.4L840 439.6L810 404.6Z" fill="#040405" stroke="#040405"></path><path d="M127 492.4L194 474.4L130 417.7Z" fill="#030304" stroke="#030304"></path><path d="M141 527.1L159 535.3L194 474.4Z" fill="#000000" stroke="#000000"></path><path d="M667 0L628 0L641 36.9Z" fill="#020203" stroke="#020203"></path><path d="M179 106.6L212 195.4L240 112.6Z" fill="#000000" stroke="#000000"></path><path d="M373 0L322 2.9L368 70.9Z" fill="#080809" stroke="#080809"></path><path d="M807 521.1L834 476.3L792 487.3Z" fill="#000000" stroke="#000000"></path><path d="M705 600L760 600L739 567.1Z" fill="#020203" stroke="#020203"></path><path d="M807 521.1L863 523.1L834 476.3Z" fill="#030304" stroke="#030304"></path><path d="M104 279L162 243.3L128 246.1Z" fill="#080809" stroke="#080809"></path><path d="M104 279L102 314.9L125 330Z" fill="#060607" stroke="#060607"></path><path d="M125 330L81 342.9L125 398.6Z" fill="#010102" stroke="#010102"></path><path d="M112 499.4L127 492.4L79 475.3Z" fill="#040405" stroke="#040405"></path><path d="M104 279L128 246.1L54 191.3Z" fill="#050506" stroke="#050506"></path><path d="M108 165.4L132 240.1L148 177.4Z" fill="#050506" stroke="#050506"></path><path d="M76 412.6L130 417.7L125 398.6Z" fill="#080809" stroke="#080809"></path><path d="M205 57.7L179 106.6L240 112.6Z" fill="#080809" stroke="#080809"></path><path d="M900 317L860 287L840 323Z" fill="#060607" stroke="#060607"></path><path d="M840 323L860 287L815 270.1Z" fill="#020203" stroke="#020203"></path><path d="M817 236.1L816 154.4L775 203.3Z" fill="#000000" stroke="#000000"></path><path d="M322 2.9L308 0L273 87.7Z" fill="#060607" stroke="#060607"></path><path d="M246 56.9L205 57.7L240 112.6Z" fill="#020203" stroke="#020203"></path><path d="M373 0L308 0L322 2.9Z" fill="#080809" stroke="#080809"></path><path d="M127 492.4L141 527.1L194 474.4Z" fill="#000000" stroke="#000000"></path><path d="M159 535.3L163 600L203 584.1Z" fill="#060607" stroke="#060607"></path><path d="M873 159.6L816 154.4L817 236.1Z" fill="#080809" stroke="#080809"></path><path d="M787 163.6L787 99.7L778 164.4Z" fill="#060607" stroke="#060607"></path><path d="M776 82.7L697 116.7L742 153.4Z" fill="#060607" stroke="#060607"></path><path d="M681 33.9L667 0L641 36.9Z" fill="#000000" stroke="#000000"></path><path d="M711 32.9L667 0L681 33.9Z" fill="#060607" stroke="#060607"></path><path d="M816 154.4L787 99.7L787 163.6Z" fill="#060607" stroke="#060607"></path><path d="M797 600L822 540.3L756 527.3Z" fill="#060607" stroke="#060607"></path><path d="M308 0L258 18.9L273 87.7Z" fill="#020203" stroke="#020203"></path><path d="M787 99.7L776 82.7L742 153.4Z" fill="#000000" stroke="#000000"></path><path d="M219 0L205 57.7L246 56.9Z" fill="#040405" stroke="#040405"></path><path d="M68 318.9L81 342.9L102 314.9Z" fill="#010102" stroke="#010102"></path><path d="M102 314.9L81 342.9L125 330Z" fill="#020203" stroke="#020203"></path><path d="M79 475.3L127 492.4L130 417.7Z" fill="#020203" stroke="#020203"></path><path d="M127 492.4L112 499.4L141 527.1Z" fill="#080809" stroke="#080809"></path><path d="M873 459.4L877 417.7L840 439.6Z" fill="#000000" stroke="#000000"></path><path d="M840 439.6L877 417.7L810 404.6Z" fill="#000000" stroke="#000000"></path><path d="M873 459.4L832 455.4L834 476.3Z" fill="#070708" stroke="#070708"></path><path d="M81 342.9L76 382.7L125 398.6Z" fill="#050506" stroke="#050506"></path><path d="M760 600L797 600L739 567.1Z" fill="#070708" stroke="#070708"></path><path d="M863 523.1L873 459.4L834 476.3Z" fill="#060607" stroke="#060607"></path><path d="M900 317L877 251.3L860 287Z" fill="#070708" stroke="#070708"></path><path d="M860 287L877 251.3L815 270.1Z" fill="#020203" stroke="#020203"></path><path d="M760 35.9L776 82.7L829 64.9Z" fill="#060607" stroke="#060607"></path><path d="M113 600L163 600L159 535.3Z" fill="#060607" stroke="#060607"></path><path d="M203 584.1L163 600L229 600Z" fill="#020203" stroke="#020203"></path><path d="M105 545.3L159 535.3L141 527.1Z" fill="#060607" stroke="#060607"></path><path d="M308 0L260 0L258 18.9Z" fill="#070708" stroke="#070708"></path><path d="M202 0L192 53.7L205 57.7Z" fill="#070708" stroke="#070708"></path><path d="M863 523.1L807 521.1L822 540.3Z" fill="#050506" stroke="#050506"></path><path d="M219 0L246 56.9L258 18.9Z" fill="#080809" stroke="#080809"></path><path d="M205 57.7L192 53.7L179 106.6Z" fill="#080809" stroke="#080809"></path><path d="M111 148.6L148 177.4L155 156.4Z" fill="#080809" stroke="#080809"></path><path d="M111 148.6L108 165.4L148 177.4Z" fill="#000000" stroke="#000000"></path><path d="M76 382.7L76 412.6L125 398.6Z" fill="#010102" stroke="#010102"></path><path d="M111 148.6L155 156.4L125 104.7Z" fill="#020203" stroke="#020203"></path><path d="M104 279L68 318.9L102 314.9Z" fill="#020203" stroke="#020203"></path><path d="M41 333L68 318.9L0 311Z" fill="#000000" stroke="#000000"></path><path d="M81 342.9L49 384.7L76 382.7Z" fill="#000000" stroke="#000000"></path><path d="M76 382.7L63 409.6L76 412.6Z" fill="#010102" stroke="#010102"></path><path d="M774 14.9L760 35.9L829 64.9Z" fill="#040405" stroke="#040405"></path><path d="M776 82.7L760 35.9L692 57.7Z" fill="#050506" stroke="#050506"></path><path d="M711 32.9L742 0L667 0Z" fill="#010102" stroke="#010102"></path><path d="M829 64.9L787 99.7L869 112.7Z" fill="#020203" stroke="#020203"></path><path d="M125 104.7L155 156.4L179 106.6Z" fill="#030304" stroke="#030304"></path><path d="M8 230.1L68 318.9L104 279Z" fill="#070708" stroke="#070708"></path><path d="M900 399.7L900 336.9L840 323Z" fill="#060607" stroke="#060607"></path><path d="M900 399.7L817 342.9L877 417.7Z" fill="#010102" stroke="#010102"></path><path d="M900 336.9L900 317L840 323Z" fill="#080809" stroke="#080809"></path><path d="M76 412.6L79 475.3L130 417.7Z" fill="#060607" stroke="#060607"></path><path d="M112 499.4L105 545.3L141 527.1Z" fill="#070708" stroke="#070708"></path><path d="M42 440.4L79 475.3L76 412.6Z" fill="#020203" stroke="#020203"></path><path d="M49 384.7L63 409.6L76 382.7Z" fill="#030304" stroke="#030304"></path><path d="M845 600L863 523.1L822 540.3Z" fill="#070708" stroke="#070708"></path><path d="M900 420.6L900 399.7L877 417.7Z" fill="#000000" stroke="#000000"></path><path d="M900 420.6L877 417.7L900 443.4Z" fill="#030304" stroke="#030304"></path><path d="M66 494.3L105 545.3L112 499.4Z" fill="#080809" stroke="#080809"></path><path d="M900 443.4L877 417.7L873 459.4Z" fill="#040405" stroke="#040405"></path><path d="M151 58.9L125 104.7L179 106.6Z" fill="#020203" stroke="#020203"></path><path d="M151 58.9L179 106.6L192 53.7Z" fill="#080809" stroke="#080809"></path><path d="M900 509.3L900 443.4L873 459.4Z" fill="#050506" stroke="#050506"></path><path d="M260 0L219 0L258 18.9Z" fill="#040405" stroke="#040405"></path><path d="M774 14.9L742 0L760 35.9Z" fill="#040405" stroke="#040405"></path><path d="M760 35.9L742 0L711 32.9Z" fill="#020203" stroke="#020203"></path><path d="M41 333L49 384.7L81 342.9Z" fill="#010102" stroke="#010102"></path><path d="M42 440.4L66 494.3L79 475.3Z" fill="#070708" stroke="#070708"></path><path d="M41 333L81 342.9L68 318.9Z" fill="#030304" stroke="#030304"></path><path d="M900 223.1L817 236.1L877 251.3Z" fill="#060607" stroke="#060607"></path><path d="M900 189.3L873 159.6L817 236.1Z" fill="#070708" stroke="#070708"></path><path d="M166 0L151 58.9L192 53.7Z" fill="#070708" stroke="#070708"></path><path d="M900 317L900 223.1L877 251.3Z" fill="#040405" stroke="#040405"></path><path d="M68 151.6L108 165.4L111 148.6Z" fill="#070708" stroke="#070708"></path><path d="M54 191.3L132 240.1L108 165.4Z" fill="#060607" stroke="#060607"></path><path d="M42 440.4L76 412.6L63 409.6Z" fill="#060607" stroke="#060607"></path><path d="M79 475.3L66 494.3L112 499.4Z" fill="#060607" stroke="#060607"></path><path d="M829 64.9L776 82.7L787 99.7Z" fill="#060607" stroke="#060607"></path><path d="M219 0L202 0L205 57.7Z" fill="#060607" stroke="#060607"></path><path d="M797 600L845 600L822 540.3Z" fill="#050506" stroke="#050506"></path><path d="M863 523.1L900 509.3L873 459.4Z" fill="#060607" stroke="#060607"></path><path d="M107 78.9L95 119.6L125 104.7Z" fill="#020203" stroke="#020203"></path><path d="M125 104.7L95 119.6L111 148.6Z" fill="#020203" stroke="#020203"></path><path d="M107 78.9L125 104.7L151 58.9Z" fill="#060607" stroke="#060607"></path><path d="M869 112.7L787 99.7L816 154.4Z" fill="#010102" stroke="#010102"></path><path d="M900 223.1L900 189.3L817 236.1Z" fill="#020203" stroke="#020203"></path><path d="M873 159.6L869 112.7L816 154.4Z" fill="#050506" stroke="#050506"></path><path d="M67 600L113 600L105 545.3Z" fill="#060607" stroke="#060607"></path><path d="M105 545.3L113 600L159 535.3Z" fill="#020203" stroke="#020203"></path><path d="M0 407.6L42 440.4L49 384.7Z" fill="#060607" stroke="#060607"></path><path d="M49 384.7L42 440.4L63 409.6Z" fill="#060607" stroke="#060607"></path><path d="M66 494.3L51 519.1L105 545.3Z" fill="#080809" stroke="#080809"></path><path d="M900 548.1L900 509.3L863 523.1Z" fill="#020203" stroke="#020203"></path><path d="M900 145.4L869 112.7L873 159.6Z" fill="#080809" stroke="#080809"></path><path d="M68 151.6L54 191.3L108 165.4Z" fill="#060607" stroke="#060607"></path><path d="M95 119.6L68 151.6L111 148.6Z" fill="#030304" stroke="#030304"></path><path d="M117 35.9L107 78.9L151 58.9Z" fill="#010102" stroke="#010102"></path><path d="M95 119.6L22 95.7L68 151.6Z" fill="#030304" stroke="#030304"></path><path d="M808 0L774 14.9L829 64.9Z" fill="#030304" stroke="#030304"></path><path d="M808 0L784 0L774 14.9Z" fill="#080809" stroke="#080809"></path><path d="M774 14.9L784 0L742 0Z" fill="#060607" stroke="#060607"></path><path d="M900 189.3L900 150.6L873 159.6Z" fill="#060607" stroke="#060607"></path><path d="M839 0L808 0L829 64.9Z" fill="#080809" stroke="#080809"></path><path d="M0 474.4L51 519.1L66 494.3Z" fill="#060607" stroke="#060607"></path><path d="M900 150.6L900 145.4L873 159.6Z" fill="#060607" stroke="#060607"></path><path d="M202 0L166 0L192 53.7Z" fill="#000000" stroke="#000000"></path><path d="M845 600L900 548.1L863 523.1Z" fill="#020203" stroke="#020203"></path><path d="M0 187.4L37 178.4L0 111.6Z" fill="#010102" stroke="#010102"></path><path d="M68 151.6L37 178.4L54 191.3Z" fill="#020203" stroke="#020203"></path><path d="M54 191.3L25 206.3L104 279Z" fill="#000000" stroke="#000000"></path><path d="M41 333L0 374.9L49 384.7Z" fill="#060607" stroke="#060607"></path><path d="M900 77.9L829 64.9L869 112.7Z" fill="#000000" stroke="#000000"></path><path d="M37 178.4L25 206.3L54 191.3Z" fill="#050506" stroke="#050506"></path><path d="M900 145.4L900 119.7L869 112.7Z" fill="#030304" stroke="#030304"></path><path d="M166 0L117 35.9L151 58.9Z" fill="#020203" stroke="#020203"></path><path d="M0 187.4L25 206.3L37 178.4Z" fill="#010102" stroke="#010102"></path><path d="M0 311L0 374.9L41 333Z" fill="#070708" stroke="#070708"></path><path d="M42 440.4L0 474.4L66 494.3Z" fill="#020203" stroke="#020203"></path><path d="M8 230.1L0 311L68 318.9Z" fill="#060607" stroke="#060607"></path><path d="M0 374.9L0 406.7L49 384.7Z" fill="#030304" stroke="#030304"></path><path d="M0 406.7L0 407.6L49 384.7Z" fill="#030304" stroke="#030304"></path><path d="M25 206.3L8 230.1L104 279Z" fill="#010102" stroke="#010102"></path><path d="M0 217.1L8 230.1L25 206.3Z" fill="#080809" stroke="#080809"></path><path d="M35 574.1L105 545.3L51 519.1Z" fill="#080809" stroke="#080809"></path><path d="M35 574.1L67 600L105 545.3Z" fill="#070708" stroke="#070708"></path><path d="M845 600L900 600L900 548.1Z" fill="#050506" stroke="#050506"></path><path d="M0 199.3L0 217.1L25 206.3Z" fill="#070708" stroke="#070708"></path><path d="M8 230.1L0 217.1L0 311Z" fill="#000000" stroke="#000000"></path><path d="M0 199.3L25 206.3L0 187.4Z" fill="#020203" stroke="#020203"></path><path d="M900 119.7L900 77.9L869 112.7Z" fill="#010102" stroke="#010102"></path><path d="M900 0L839 0L829 64.9Z" fill="#020203" stroke="#020203"></path><path d="M0 407.6L0 474.4L42 440.4Z" fill="#080809" stroke="#080809"></path><path d="M0 536.1L35 574.1L51 519.1Z" fill="#010102" stroke="#010102"></path><path d="M74 49.7L95 119.6L107 78.9Z" fill="#030304" stroke="#030304"></path><path d="M117 35.9L74 49.7L107 78.9Z" fill="#010102" stroke="#010102"></path><path d="M79 14.9L74 49.7L117 35.9Z" fill="#050506" stroke="#050506"></path><path d="M0 111.6L37 178.4L68 151.6Z" fill="#080809" stroke="#080809"></path><path d="M0 474.4L0 507.3L51 519.1Z" fill="#050506" stroke="#050506"></path><path d="M166 0L107 0L117 35.9Z" fill="#060607" stroke="#060607"></path><path d="M0 507.3L0 536.1L51 519.1Z" fill="#010102" stroke="#010102"></path><path d="M107 0L79 14.9L117 35.9Z" fill="#020203" stroke="#020203"></path><path d="M74 49.7L22 95.7L95 119.6Z" fill="#060607" stroke="#060607"></path><path d="M0 600L27 600L35 574.1Z" fill="#050506" stroke="#050506"></path><path d="M35 574.1L27 600L67 600Z" fill="#070708" stroke="#070708"></path><path d="M0 57.7L22 95.7L74 49.7Z" fill="#030304" stroke="#030304"></path><path d="M0 57.7L0 111.6L22 95.7Z" fill="#020203" stroke="#020203"></path><path d="M22 95.7L0 111.6L68 151.6Z" fill="#030304" stroke="#030304"></path><path d="M107 0L72 0L79 14.9Z" fill="#080809" stroke="#080809"></path><path d="M79 14.9L0 38.9L74 49.7Z" fill="#070708" stroke="#070708"></path><path d="M900 77.9L900 0L829 64.9Z" fill="#060607" stroke="#060607"></path><path d="M0 536.1L0 600L35 574.1Z" fill="#010102" stroke="#010102"></path><path d="M0 38.9L0 57.7L74 49.7Z" fill="#060607" stroke="#060607"></path><path d="M72 0L0 38.9L79 14.9Z" fill="#080809" stroke="#080809"></path><path d="M72 0L0 0L0 38.9Z" fill="#060607" stroke="#060607"></path></g></svg>